<svg xmlns="http://www.w3.org/2000/svg" viewBox="0 0 235 70.01467"><defs><style>.\31 2fbae67-6b1f-4a0d-a1e3-f9e5127f3725{fill:none;}.\30 aed8f31-7228-405a-bdb3-8e22d164ec4b{fill:#625df5;stroke:#625df5;}.\30 aed8f31-7228-405a-bdb3-8e22d164ec4b,.a89fa95f-17ec-4762-8eea-726d001c4a85,.ed25da1f-5358-4197-ad37-f21103dc39d0{stroke-miterlimit:10;stroke-width:0.01px;}.a89fa95f-17ec-4762-8eea-726d001c4a85{fill:#1633c1;stroke:#1633c1;}.ed25da1f-5358-4197-ad37-f21103dc39d0{fill:#9b8bff;stroke:#9b8bff;}.\38 1f58205-4b23-4a7a-9262-87bb6b085fe0{fill:#231f20;}</style></defs><title>logo70black</title><g id="1fb08141-8fc6-4a8d-b955-0ff0062df0b5" data-name="Layer 2"><g id="cc44bf59-4cbe-4db9-95d5-e6c742cf4ec9" data-name="Layer 1"><rect class="12fbae67-6b1f-4a0d-a1e3-f9e5127f3725" x="104.23835" y="0.00583" width="70" height="70"/><polyline class="0aed8f31-7228-405a-bdb3-8e22d164ec4b" points="59.795 17.763 59.792 17.77 30.239 35.527 30.239 70.006 59.792 52.248"/><polyline class="a89fa95f-17ec-4762-8eea-726d001c4a85" points="0.684 52.251 0.682 52.245 30.24 70.005 30.24 35.522 0.682 17.762"/><polyline class="ed25da1f-5358-4197-ad37-f21103dc39d0" points="0.682 17.762 30.237 35.519 59.792 17.761 59.795 17.763 30.24 0.006 30.24 0.01 0.684 17.769"/><path class="81f58205-4b23-4a7a-9262-87bb6b085fe0" d="M93.26314,47.00017l-3.707,3.707V62.4699H79.25532V7.72039H89.55611V38.05388l1.99609-2.5664L101.42525,23.903h12.36914L99.85689,39.97869,115.0063,62.4699h-11.834Z"/><path class="81f58205-4b23-4a7a-9262-87bb6b085fe0" d="M137.53755,58.549q-3.81591,4.63476-10.55078,4.63379-6.20216,0-9.46387-3.56445-3.2622-3.564-3.333-10.44336V23.903h10.30079V48.84685q0,6.03076,5.49023,6.03125,5.23828,0,7.19922-3.64062V23.903H147.518V62.4699h-9.69531Z"/><path class="81f58205-4b23-4a7a-9262-87bb6b085fe0" d="M186.19478,43.54314q0,9.26807-3.95606,14.45313a13.10786,13.10786,0,0,1-11.05078,5.18652,12.0396,12.0396,0,0,1-10.01562-4.81152l-.46289,4.09863h-9.26758V7.72039h10.30078V27.36052a11.73153,11.73153,0,0,1,9.375-4.17041A13.21314,13.21314,0,0,1,182.185,28.37664q4.00927,5.18555,4.00977,14.59619Zm-10.30176-.749q0-5.84473-1.85352-8.53662a6.268,6.268,0,0,0-5.52441-2.69092q-4.91895,0-6.77246,4.02783V50.81463q1.88818,4.06347,6.84375,4.06347,4.98926,0,6.55859-4.91894A25.38225,25.38225,0,0,0,175.893,42.79412Z"/><path class="81f58205-4b23-4a7a-9262-87bb6b085fe0" d="M188.28462,13.92254a5.0749,5.0749,0,0,1,1.55078-3.814,6.68174,6.68174,0,0,1,8.42969,0,5.04264,5.04264,0,0,1,1.56836,3.814,5.05671,5.05671,0,0,1-1.58594,3.84961,6.6064,6.6064,0,0,1-8.376,0A5.0575,5.0575,0,0,1,188.28462,13.92254ZM199.228,62.4699H188.89107V23.903H199.228Z"/><path class="81f58205-4b23-4a7a-9262-87bb6b085fe0" d="M224.16743,51.81267a3.31885,3.31885,0,0,0-1.87109-2.97656,21.26284,21.26284,0,0,0-6.00586-1.94238q-13.75928-2.88722-13.75879-11.69141a10.59857,10.59857,0,0,1,4.25977-8.57275q4.25829-3.43872,11.13867-3.43946,7.3418,0,11.74512,3.45752a10.89752,10.89752,0,0,1,4.40234,8.98243H223.77583a4.98724,4.98724,0,0,0-1.42578-3.65381,6.03851,6.03851,0,0,0-4.45605-1.44336,6.164,6.164,0,0,0-4.02735,1.17627,3.71129,3.71129,0,0,0-1.42578,2.99414,3.17062,3.17062,0,0,0,1.62207,2.76172,16.65207,16.65207,0,0,0,5.47168,1.81836,44.79131,44.79131,0,0,1,6.48633,1.72851q8.16212,2.99415,8.16308,10.373a10.06147,10.06147,0,0,1-4.52636,8.53613q-4.52784,3.26221-11.69141,3.26172a20.39707,20.39707,0,0,1-8.6084-1.72852,14.43165,14.43165,0,0,1-5.89941-4.74121,11.01133,11.01133,0,0,1-2.13867-6.50488h9.7666a5.37178,5.37178,0,0,0,2.03223,4.20606,8.052,8.052,0,0,0,5.06054,1.46191,7.46205,7.46205,0,0,0,4.47363-1.123A3.49408,3.49408,0,0,0,224.16743,51.81267Z"/><rect class="12fbae67-6b1f-4a0d-a1e3-f9e5127f3725" y="0.00583" width="235" height="70"/></g></g></svg>