<svg id="6c6fb4c7-1751-44b4-a19e-3c1820c490fd" data-name="Layer 1" xmlns="http://www.w3.org/2000/svg" viewBox="0 0 385 70.1"><defs><style>.ddc39726-fda0-4d71-9fe5-39497836aa47{fill:#1b1e2e;}.b6fc471b-5834-4a06-9471-22d842518161{fill:none;}.\34 e6c814a-73c2-416f-ac6c-45741c480b09{fill:#9b8bff;}</style></defs><title>MyMLOps_Logo_name_70x388</title><path class="ddc39726-fda0-4d71-9fe5-39497836aa47" d="M103.9,9.1h9.5l12.8,31.1h.5L139.5,9.1H149v43h-7.5V22.5h-.4L129.2,52h-5.6L111.8,22.5h-.4V52.1h-7.5Z" transform="translate(0 0.1)"/><path class="ddc39726-fda0-4d71-9fe5-39497836aa47" d="M159.8,64.2l-2.9-.2-2.1-.6,1.8-5.9a11.3,11.3,0,0,0,3,.4,4,4,0,0,0,2.3-.8,6.9,6.9,0,0,0,1.7-2.6l.6-1.7-11.7-33h8.1L168,44.2h.4l7.4-24.4h8.1L171,56a14.3,14.3,0,0,1-2.4,4.4,9.3,9.3,0,0,1-3.7,2.8A11.3,11.3,0,0,1,159.8,64.2Z" transform="translate(0 0.1)"/><path class="ddc39726-fda0-4d71-9fe5-39497836aa47" d="M187.4,9.1H197l12.7,31.1h.5L223,9.1h9.5v43h-7.4V22.5h-.4L212.8,52h-5.6L195.3,22.5h-.4V52.1h-7.5Z" transform="translate(0 0.1)"/><path class="ddc39726-fda0-4d71-9fe5-39497836aa47" d="M239,52.1V9.1h7.8V45.6h18.9v6.5Z" transform="translate(0 0.1)"/><path class="ddc39726-fda0-4d71-9fe5-39497836aa47" d="M307.1,30.6a25.8,25.8,0,0,1-2.5,11.9,19.3,19.3,0,0,1-7.1,7.6,20.2,20.2,0,0,1-10.1,2.6A18.8,18.8,0,0,1,277.3,50a17.8,17.8,0,0,1-7.1-7.5,25.8,25.8,0,0,1-2.6-11.9,25.5,25.5,0,0,1,2.6-11.9,18.6,18.6,0,0,1,7.1-7.6,19.7,19.7,0,0,1,10.1-2.6,20.2,20.2,0,0,1,10.1,2.6,19.3,19.3,0,0,1,7.1,7.6A25.5,25.5,0,0,1,307.1,30.6Zm-7.8,0a20.5,20.5,0,0,0-1.5-8.3,11.8,11.8,0,0,0-4.2-5.1,11.8,11.8,0,0,0-6.2-1.7,11.5,11.5,0,0,0-6.2,1.7,11.8,11.8,0,0,0-4.2,5.1,20.5,20.5,0,0,0-1.6,8.3,20,20,0,0,0,1.6,8.2,10.7,10.7,0,0,0,10.4,6.9,11.8,11.8,0,0,0,6.2-1.7,11.6,11.6,0,0,0,4.2-5.2A20,20,0,0,0,299.3,30.6Z" transform="translate(0 0.1)"/><path class="ddc39726-fda0-4d71-9fe5-39497836aa47" d="M312.1,64.2V19.8h7.5v5.4h.5a10.8,10.8,0,0,1,1.6-2.6,9.6,9.6,0,0,1,2.9-2.2,9.4,9.4,0,0,1,4.7-1,11.9,11.9,0,0,1,6.7,1.9,13.3,13.3,0,0,1,4.8,5.6,20.8,20.8,0,0,1,1.8,9.1,21.9,21.9,0,0,1-1.7,9,13.6,13.6,0,0,1-4.8,5.7,12.3,12.3,0,0,1-6.8,2,9.2,9.2,0,0,1-4.6-1,8.2,8.2,0,0,1-2.9-2.2,11.1,11.1,0,0,1-1.7-2.5h-.4V64.2ZM319.6,36a14.9,14.9,0,0,0,.9,5.4,7.8,7.8,0,0,0,2.6,3.7,6.3,6.3,0,0,0,4.1,1.3,6.4,6.4,0,0,0,4.2-1.3,8.9,8.9,0,0,0,2.6-3.8,14.4,14.4,0,0,0,.8-5.3,15.3,15.3,0,0,0-.8-5.4,7.5,7.5,0,0,0-2.6-3.6,6.4,6.4,0,0,0-4.2-1.4,7.5,7.5,0,0,0-4.2,1.3,7.8,7.8,0,0,0-2.5,3.6A15.5,15.5,0,0,0,319.6,36Z" transform="translate(0 0.1)"/><path class="ddc39726-fda0-4d71-9fe5-39497836aa47" d="M372.5,28.4l-6.9.7a6.2,6.2,0,0,0-1-2,6.2,6.2,0,0,0-2-1.5,8.5,8.5,0,0,0-3-.5,6.9,6.9,0,0,0-3.9,1,3.1,3.1,0,0,0-1.6,2.7,2.9,2.9,0,0,0,1,2.3,9,9,0,0,0,3.5,1.4l5.5,1.2a13.9,13.9,0,0,1,6.9,3.1,7.7,7.7,0,0,1,2.2,5.6,8.6,8.6,0,0,1-1.8,5.4,11.1,11.1,0,0,1-4.8,3.6,18.1,18.1,0,0,1-7.2,1.3c-3.9,0-7.1-.8-9.5-2.5a9.8,9.8,0,0,1-4.3-6.9l7.4-.7a5.8,5.8,0,0,0,2.1,3.3,8.1,8.1,0,0,0,4.3,1.1,8.2,8.2,0,0,0,4.4-1.1,3.3,3.3,0,0,0,1.6-2.8,2.9,2.9,0,0,0-1-2.3,8.6,8.6,0,0,0-3.3-1.4l-5.5-1.1c-3.1-.7-5.4-1.7-6.9-3.3a7.9,7.9,0,0,1-2.2-5.8,8.5,8.5,0,0,1,1.6-5.2,11.5,11.5,0,0,1,4.6-3.4,18.3,18.3,0,0,1,6.8-1.2q5.7,0,9,2.4A10,10,0,0,1,372.5,28.4Z" transform="translate(0 0.1)"/><rect class="b6fc471b-5834-4a06-9471-22d842518161" width="385" height="70"/><path class="4e6c814a-73c2-416f-ac6c-45741c480b09" d="M64.2,46.2,72,50.1a1.3,1.3,0,0,1,0,2.4L37.6,69.7a2.5,2.5,0,0,1-2.4,0L.8,52.5a1.2,1.2,0,0,1-.6-1.8.9.9,0,0,1,.6-.6l7.8-3.9L32.7,58.3a8.5,8.5,0,0,0,7.3,0L64.2,46.2ZM35.2.3a2.5,2.5,0,0,1,2.4,0L72,17.5a1.3,1.3,0,0,1,.6,1.8.9.9,0,0,1-.6.6L37.6,37.1a2.5,2.5,0,0,1-2.4,0L.8,19.9a1.2,1.2,0,0,1-.6-1.8.9.9,0,0,1,.6-.6Z" transform="translate(0 0.1)"/><path class="4e6c814a-73c2-416f-ac6c-45741c480b09" d="M64.2,29.9,72,33.8a1.3,1.3,0,0,1,0,2.4L37.6,53.4a2.5,2.5,0,0,1-2.4,0L.8,36.2a1.2,1.2,0,0,1-.6-1.8.9.9,0,0,1,.6-.6l7.8-3.9L32.7,42A8.5,8.5,0,0,0,40,42L64.2,29.9Z" transform="translate(0 0.1)"/></svg>